<?xml version="1.0" encoding="utf-8"?><svg xmlns="http://www.w3.org/2000/svg" xmlns:xlink="http://www.w3.org/1999/xlink"><symbol viewBox="0 0 36 36" id="cart" xmlns="http://www.w3.org/2000/svg"><rect width="36" height="36" rx="14"/></symbol><symbol viewBox="0 0 20 20" id="circle" xmlns="http://www.w3.org/2000/svg"><rect x="1" y="1" width="18" height="18" rx="9"/></symbol><symbol viewBox="0 0 20 20" id="filter" xmlns="http://www.w3.org/2000/svg"><path d="M19.911.39a.827.827 0 0 0-.745-.39H.834A.827.827 0 0 0 .09.39a.753.753 0 0 0 .082.833l5.053 6.97a12.15 12.15 0 0 1 2.291 6.082L7.46 19.55a.362.362 0 0 0 .166.333c.107.09.248.13.386.111h3.976c.138.02.279-.02.386-.11a.501.501 0 0 0 .166-.362l-.055-5.276c.198-2.2.99-4.303 2.291-6.082l5.052-6.942a.753.753 0 0 0 .083-.833zm-4.224 4.72a3.355 3.355 0 0 1-1.463-.5 4.7 4.7 0 0 0-2.43-.61 4.947 4.947 0 0 0-2.457.583 3.49 3.49 0 0 1-1.905.5 3.792 3.792 0 0 1-1.96-.5 4.92 4.92 0 0 0-1.905-.528l-2.18-2.943h17.227l-2.927 3.999z"/></symbol><symbol viewBox="0 0 12 12" id="icon-X" xmlns="http://www.w3.org/2000/svg"><path d="M7.1 6.012l4.672-4.673a.777.777 0 1 0-1.1-1.099L6 4.913 1.327.24a.777.777 0 1 0-1.099 1.1l4.673 4.672-4.673 4.673a.776.776 0 1 0 1.1 1.1L6 7.11l4.673 4.673a.775.775 0 0 0 1.099 0 .777.777 0 0 0 0-1.1l-4.673-4.67z"/></symbol><symbol viewBox="0 0 68 13" id="logo" xmlns="http://www.w3.org/2000/svg"><path d="M5.665 13c-1.086 0-2.147-.125-3.185-.376C1.443 12.36.616 12.03 0 11.64l1.264-2.628c.584.36 1.29.657 2.116.892a9.473 9.473 0 0 0 2.431.328c1.605 0 2.408-.383 2.408-1.15 0-.36-.22-.618-.657-.774-.438-.157-1.11-.29-2.018-.4-1.07-.155-1.953-.335-2.65-.539a4.225 4.225 0 0 1-1.824-1.08C.567 5.774.316 5.039.316 4.084c0-.798.235-1.502.705-2.112.487-.626 1.184-1.11 2.091-1.455C4.036.172 5.122 0 6.371 0c.924 0 1.84.102 2.747.305.924.188 1.686.454 2.286.798l-1.265 2.605c-1.15-.626-2.407-.94-3.768-.94-.81.001-1.419.11-1.824.33-.405.218-.608.5-.608.844 0 .391.219.665.657.822.437.156 1.134.305 2.09.445 1.07.172 1.946.36 2.627.564a3.88 3.88 0 0 1 1.775 1.056c.502.516.754 1.235.754 2.158a3.26 3.26 0 0 1-.73 2.089c-.486.61-1.2 1.087-2.14 1.431-.924.329-2.026.493-3.307.493zm21.088-6.453c0 .047-.025.375-.073.985h-9.896c.178.783.6 1.4 1.264 1.854.665.454 1.491.68 2.48.68.68 0 1.28-.093 1.8-.28a4.538 4.538 0 0 0 1.483-.94l2.018 2.113C24.597 12.319 22.797 13 20.43 13c-1.475 0-2.78-.274-3.915-.821-1.135-.563-2.01-1.338-2.626-2.323-.616-.986-.924-2.104-.924-3.356 0-1.236.3-2.347.9-3.332A6.29 6.29 0 0 1 16.37.845C17.44.282 18.631 0 19.945 0c1.28 0 2.44.266 3.477.798a5.842 5.842 0 0 1 2.431 2.3c.6.985.9 2.135.9 3.449zm-6.784-3.778c-.86 0-1.58.235-2.164.704-.584.47-.94 1.11-1.07 1.924h6.443c-.13-.798-.486-1.431-1.07-1.9-.583-.486-1.296-.728-2.14-.728zM41.782.188l-5.52 12.624h-3.915L26.852.188h3.915l3.623 8.588L38.135.188h3.647zM47.935 0c2.027 0 3.583.47 4.669 1.408 1.086.923 1.63 2.323 1.63 4.2v7.204h-3.55V11.24C49.97 12.413 48.64 13 46.694 13c-1.005 0-1.88-.164-2.626-.493-.73-.328-1.288-.782-1.677-1.36a3.451 3.451 0 0 1-.584-1.972c0-1.173.454-2.096 1.362-2.769.924-.673 2.342-1.009 4.255-1.009h3.015c0-.798-.251-1.408-.754-1.83-.502-.438-1.256-.657-2.261-.657-.697 0-1.386.11-2.067.328-.665.204-1.232.485-1.702.845l-1.362-2.558C43.008 1.04 43.86.665 44.847.4a12.02 12.02 0 0 1 3.088-.4zm-.291 10.536c.648 0 1.224-.14 1.726-.422a2.45 2.45 0 0 0 1.07-1.29V7.531h-2.602c-1.556 0-2.334.493-2.334 1.479 0 .47.186.845.56 1.126.388.266.915.4 1.58.4zM61.824 13c-1.086 0-2.148-.125-3.185-.376-1.038-.265-1.864-.594-2.48-.985l1.264-2.628c.584.36 1.289.657 2.115.892a9.473 9.473 0 0 0 2.432.328c1.605 0 2.407-.383 2.407-1.15 0-.36-.219-.618-.656-.774-.438-.157-1.11-.29-2.019-.4-1.07-.155-1.953-.335-2.65-.539a4.225 4.225 0 0 1-1.824-1.08c-.502-.515-.753-1.25-.753-2.205 0-.798.235-1.502.705-2.112.486-.626 1.183-1.11 2.09-1.455C60.196.172 61.28 0 62.53 0c.923 0 1.839.102 2.747.305.924.188 1.686.454 2.285.798l-1.264 2.605c-1.151-.626-2.407-.94-3.769-.94-.81.001-1.418.11-1.824.33-.405.218-.607.5-.607.844 0 .391.218.665.656.822.438.156 1.135.305 2.091.445 1.07.172 1.945.36 2.626.564a3.87 3.87 0 0 1 1.775 1.056c.503.516.754 1.235.754 2.158 0 .783-.243 1.479-.73 2.089-.486.61-1.199 1.087-2.14 1.431-.923.329-2.025.493-3.306.493z"/></symbol><symbol viewBox="0 0 18 18" id="magnifier" xmlns="http://www.w3.org/2000/svg"><path d="M17.78 16.72l-5.119-5.12a7.09 7.09 0 0 0 1.589-4.475C14.25 3.196 11.053 0 7.125 0A7.133 7.133 0 0 0 0 7.125c0 3.928 3.196 7.125 7.125 7.125a7.09 7.09 0 0 0 4.475-1.59l5.119 5.12a.748.748 0 0 0 1.06 0 .75.75 0 0 0 0-1.061zM7.125 12.75A5.63 5.63 0 0 1 1.5 7.125 5.63 5.63 0 0 1 7.125 1.5a5.63 5.63 0 0 1 5.625 5.625 5.63 5.63 0 0 1-5.625 5.625z"/></symbol><symbol viewBox="0 0 14 4" id="minus" xmlns="http://www.w3.org/2000/svg"><path d="M0 0h14v4H0V0z"/></symbol><symbol viewBox="0 0 14 14" id="plus" xmlns="http://www.w3.org/2000/svg"><path d="M0 5h14v4H0V5z"/><path d="M9 0v14H5V0h4z"/></symbol></svg>